# xmcd
# 
# Track frame offsets:
#     150
#     14289
#     35959
#     51687
#     68591
#     93340
#     110731
#     129217
#     153673
#     180903
#     196003
#     214603
# 
# Disc length: 3157
# 
# Revision: 2
# Processed by: cddbd v1.5.2PL0 Copyright (c) Steve Scherf et al.
# Submitted via: fre:ac v1.0.31
# 
DISCID=a20c530c
DTITLE=Duke Robillard - World Full Of Blues [CD1]
DYEAR=2007
DGENRE=Blues
TTITLE0=Jump The Blues For You
TTITLE1=Everything Is Broken
TTITLE2=Treat Me So Lowdown
TTITLE3=Slam Hammer
TTITLE4=You're Killin' Me Baby
TTITLE5=Slim Jenkins Joint
TTITLE6=Sweet Thing
TTITLE7=You Won't Let Me Go
TTITLE8=Six Inch Heels
TTITLE9=World Of Blues
TTITLE10=Look Out
TTITLE11=Stoned
EXTD=
EXTT0=
EXTT1=
EXTT2=
EXTT3=
EXTT4=
EXTT5=
EXTT6=
EXTT7=
EXTT8=
EXTT9=
EXTT10=
EXTT11=
PLAYORDER=
